<svg width="414" height="896" viewBox="0 0 414 896" fill="none" xmlns="http://www.w3.org/2000/svg">
<g clip-path="url(#clip0)">
<rect width="414" height="896" fill="#2A2940"/>
<g filter="url(#filter0_d)">
<line x1="113.5" y1="317" x2="113.5" y2="-39" stroke="#F5DDDD"/>
</g>
<g filter="url(#filter1_d)">
<path d="M148.765 93.324C151.866 88.5227 159.102 89.2596 161.171 94.5874L173.298 125.817C174.108 127.903 175.866 129.476 178.029 130.049L210.412 138.636C215.936 140.101 217.472 147.212 213.044 150.826L187.09 172.01C185.357 173.424 184.404 175.583 184.527 177.817L186.367 211.268C186.681 216.975 180.393 220.632 175.588 217.538L147.42 199.401C145.539 198.189 143.192 197.95 141.105 198.758L109.86 210.845C104.529 212.907 99.108 208.057 100.566 202.531L109.111 170.137C109.682 167.973 109.184 165.667 107.771 163.932L86.6207 137.951C83.0124 133.519 85.9495 126.864 91.6558 126.543L125.105 124.66C127.339 124.534 129.378 123.348 130.592 121.468L148.765 93.324Z" fill="#F0D4B2"/>
</g>
<g filter="url(#filter2_d)">
<path d="M70.0152 440.352C73.1156 435.551 80.3522 436.288 82.4211 441.615L108.752 509.423C109.562 511.509 111.32 513.082 113.483 513.655L183.793 532.3C189.318 533.764 190.853 540.875 186.425 544.489L130.073 590.484C128.34 591.899 127.387 594.057 127.51 596.292L131.505 668.922C131.819 674.629 125.531 678.286 120.726 675.192L59.568 635.811C57.6867 634.6 55.3396 634.361 53.2528 635.168L-14.5884 661.412C-19.9188 663.474 -25.3402 658.624 -23.8823 653.098L-5.32812 582.764C-4.75738 580.6 -5.25534 578.294 -6.66799 576.559L-52.5913 520.148C-56.1996 515.716 -53.2625 509.061 -47.5562 508.74L25.0691 504.651C27.3032 504.526 29.3425 503.339 30.5563 501.46L70.0152 440.352Z" fill="#F0D4B2"/>
</g>
<g filter="url(#filter3_d)">
<path d="M380.765 329.218C383.363 324.127 390.637 324.127 393.235 329.218L408.464 359.058C409.481 361.051 411.389 362.438 413.599 362.789L446.685 368.051C452.329 368.949 454.577 375.867 450.539 379.911L426.864 403.615C425.283 405.199 424.554 407.442 424.903 409.653L430.122 442.745C431.013 448.391 425.128 452.666 420.034 450.075L390.174 434.885C388.18 433.87 385.82 433.87 383.826 434.885L353.966 450.075C348.872 452.666 342.987 448.391 343.878 442.745L349.097 409.653C349.446 407.442 348.717 405.199 347.136 403.615L323.461 379.911C319.423 375.867 321.671 368.949 327.315 368.051L360.401 362.789C362.611 362.438 364.519 361.051 365.536 359.058L380.765 329.218Z" fill="#C5E4BD"/>
</g>
<g filter="url(#filter4_d)">
<path d="M134.907 770.258C138.78 766.055 145.785 768.015 146.916 773.617L158.108 829.082C158.551 831.276 160.016 833.125 162.049 834.059L213.47 857.671C218.664 860.056 218.965 867.324 213.986 870.131L164.694 897.915C162.745 899.014 161.438 900.978 161.179 903.201L154.612 959.402C153.949 965.078 147.13 967.611 142.922 963.743L101.265 925.449C99.6179 923.935 97.3459 923.3 95.152 923.739L39.6725 934.861C34.0686 935.984 29.5531 930.281 31.9315 925.084L55.4781 873.633C56.4092 871.599 56.3116 869.241 55.2153 867.291L27.494 817.963C24.6939 812.981 28.7223 806.924 34.3998 807.58L90.6091 814.075C92.8319 814.332 95.0435 813.511 96.5599 811.865L134.907 770.258Z" fill="#C5E4BD"/>
</g>
<g filter="url(#filter5_d)">
<path d="M349.046 738.727C350.902 735.091 356.098 735.091 357.954 738.727L365.384 753.286C366.11 754.71 367.474 755.7 369.052 755.951L385.195 758.519C389.227 759.16 390.832 764.102 387.948 766.99L376.397 778.556C375.267 779.687 374.746 781.289 374.995 782.868L377.542 799.014C378.178 803.047 373.975 806.101 370.336 804.25L355.767 796.838C354.343 796.114 352.657 796.114 351.233 796.838L336.664 804.25C333.025 806.101 328.822 803.047 329.458 799.014L332.005 782.868C332.254 781.289 331.733 779.687 330.603 778.556L319.052 766.99C316.168 764.102 317.773 759.16 321.805 758.519L337.948 755.951C339.526 755.7 340.89 754.71 341.616 753.286L349.046 738.727Z" fill="#F0D4B2"/>
</g>
<g filter="url(#filter6_d)">
<path d="M321.412 153C328.34 141 345.66 141 352.588 153L364.713 174C371.641 186 362.981 201 349.124 201H324.876C311.019 201 302.359 186 309.287 174L321.412 153Z" fill="#FDFFAA"/>
</g>
<g filter="url(#filter7_d)">
<path d="M234.412 619C241.34 607 258.66 607 265.588 619L277.713 640C284.641 652 275.981 667 262.124 667H237.876C224.019 667 215.359 652 222.287 640L234.412 619Z" fill="#FDFFAA"/>
</g>
<g filter="url(#filter8_d)">
<path d="M98.4115 326C105.34 314 122.66 314 129.588 326L141.713 347C148.641 359 139.981 374 126.124 374H101.876C88.0192 374 79.359 359 86.2872 347L98.4115 326Z" fill="#FDFFAA"/>
</g>
<g filter="url(#filter9_d)">
<line x1="336.5" y1="144" x2="336.5" y2="-77" stroke="#F5DDDD"/>
</g>
<g filter="url(#filter10_d)">
<line x1="249.5" y1="610" x2="249.5" y2="-23" stroke="#F5DDDD"/>
</g>
</g>
<defs>
<filter id="filter0_d" x="109" y="-39" width="9" height="364" filterUnits="userSpaceOnUse" color-interpolation-filters="sRGB">
<feFlood flood-opacity="0" result="BackgroundImageFix"/>
<feColorMatrix in="SourceAlpha" type="matrix" values="0 0 0 0 0 0 0 0 0 0 0 0 0 0 0 0 0 0 127 0"/>
<feOffset dy="4"/>
<feGaussianBlur stdDeviation="2"/>
<feColorMatrix type="matrix" values="0 0 0 0 0 0 0 0 0 0 0 0 0 0 0 0 0 0 0.25 0"/>
<feBlend mode="normal" in2="BackgroundImageFix" result="effect1_dropShadow"/>
<feBlend mode="normal" in="SourceGraphic" in2="effect1_dropShadow" result="shape"/>
</filter>
<filter id="filter1_d" x="74.3899" y="80.5119" width="151.22" height="146.096" filterUnits="userSpaceOnUse" color-interpolation-filters="sRGB">
<feFlood flood-opacity="0" result="BackgroundImageFix"/>
<feColorMatrix in="SourceAlpha" type="matrix" values="0 0 0 0 0 0 0 0 0 0 0 0 0 0 0 0 0 0 127 0"/>
<feOffset dx="1" dy="1"/>
<feGaussianBlur stdDeviation="2"/>
<feColorMatrix type="matrix" values="0 0 0 0 0 0 0 0 0 0 0 0 0 0 0 0 0 0 0.25 0"/>
<feBlend mode="normal" in2="BackgroundImageFix" result="effect1_dropShadow"/>
<feBlend mode="normal" in="SourceGraphic" in2="effect1_dropShadow" result="shape"/>
</filter>
<filter id="filter2_d" x="-57.1736" y="434.148" width="251.176" height="247.172" filterUnits="userSpaceOnUse" color-interpolation-filters="sRGB">
<feFlood flood-opacity="0" result="BackgroundImageFix"/>
<feColorMatrix in="SourceAlpha" type="matrix" values="0 0 0 0 0 0 0 0 0 0 0 0 0 0 0 0 0 0 127 0"/>
<feOffset dx="1" dy="1"/>
<feGaussianBlur stdDeviation="2"/>
<feColorMatrix type="matrix" values="0 0 0 0 0 0 0 0 0 0 0 0 0 0 0 0 0 0 0.25 0"/>
<feBlend mode="normal" in2="BackgroundImageFix" result="effect1_dropShadow"/>
<feBlend mode="normal" in="SourceGraphic" in2="effect1_dropShadow" result="shape"/>
</filter>
<filter id="filter3_d" x="318.407" y="322.399" width="139.186" height="133.451" filterUnits="userSpaceOnUse" color-interpolation-filters="sRGB">
<feFlood flood-opacity="0" result="BackgroundImageFix"/>
<feColorMatrix in="SourceAlpha" type="matrix" values="0 0 0 0 0 0 0 0 0 0 0 0 0 0 0 0 0 0 127 0"/>
<feOffset dx="1" dy="1"/>
<feGaussianBlur stdDeviation="2"/>
<feColorMatrix type="matrix" values="0 0 0 0 0 0 0 0 0 0 0 0 0 0 0 0 0 0 0.25 0"/>
<feBlend mode="normal" in2="BackgroundImageFix" result="effect1_dropShadow"/>
<feBlend mode="normal" in="SourceGraphic" in2="effect1_dropShadow" result="shape"/>
</filter>
<filter id="filter4_d" x="23.582" y="764.996" width="198.967" height="205.602" filterUnits="userSpaceOnUse" color-interpolation-filters="sRGB">
<feFlood flood-opacity="0" result="BackgroundImageFix"/>
<feColorMatrix in="SourceAlpha" type="matrix" values="0 0 0 0 0 0 0 0 0 0 0 0 0 0 0 0 0 0 127 0"/>
<feOffset dx="1" dy="1"/>
<feGaussianBlur stdDeviation="2"/>
<feColorMatrix type="matrix" values="0 0 0 0 0 0 0 0 0 0 0 0 0 0 0 0 0 0 0.25 0"/>
<feBlend mode="normal" in2="BackgroundImageFix" result="effect1_dropShadow"/>
<feBlend mode="normal" in="SourceGraphic" in2="effect1_dropShadow" result="shape"/>
</filter>
<filter id="filter5_d" x="314.585" y="733" width="79.8298" height="76.8041" filterUnits="userSpaceOnUse" color-interpolation-filters="sRGB">
<feFlood flood-opacity="0" result="BackgroundImageFix"/>
<feColorMatrix in="SourceAlpha" type="matrix" values="0 0 0 0 0 0 0 0 0 0 0 0 0 0 0 0 0 0 127 0"/>
<feOffset dx="1" dy="1"/>
<feGaussianBlur stdDeviation="2"/>
<feColorMatrix type="matrix" values="0 0 0 0 0 0 0 0 0 0 0 0 0 0 0 0 0 0 0.25 0"/>
<feBlend mode="normal" in2="BackgroundImageFix" result="effect1_dropShadow"/>
<feBlend mode="normal" in="SourceGraphic" in2="effect1_dropShadow" result="shape"/>
</filter>
<filter id="filter6_d" x="302.849" y="144" width="68.3024" height="65" filterUnits="userSpaceOnUse" color-interpolation-filters="sRGB">
<feFlood flood-opacity="0" result="BackgroundImageFix"/>
<feColorMatrix in="SourceAlpha" type="matrix" values="0 0 0 0 0 0 0 0 0 0 0 0 0 0 0 0 0 0 127 0"/>
<feOffset dy="4"/>
<feGaussianBlur stdDeviation="2"/>
<feColorMatrix type="matrix" values="0 0 0 0 0 0 0 0 0 0 0 0 0 0 0 0 0 0 0.25 0"/>
<feBlend mode="normal" in2="BackgroundImageFix" result="effect1_dropShadow"/>
<feBlend mode="normal" in="SourceGraphic" in2="effect1_dropShadow" result="shape"/>
</filter>
<filter id="filter7_d" x="215.849" y="610" width="68.3024" height="65" filterUnits="userSpaceOnUse" color-interpolation-filters="sRGB">
<feFlood flood-opacity="0" result="BackgroundImageFix"/>
<feColorMatrix in="SourceAlpha" type="matrix" values="0 0 0 0 0 0 0 0 0 0 0 0 0 0 0 0 0 0 127 0"/>
<feOffset dy="4"/>
<feGaussianBlur stdDeviation="2"/>
<feColorMatrix type="matrix" values="0 0 0 0 0 0 0 0 0 0 0 0 0 0 0 0 0 0 0.25 0"/>
<feBlend mode="normal" in2="BackgroundImageFix" result="effect1_dropShadow"/>
<feBlend mode="normal" in="SourceGraphic" in2="effect1_dropShadow" result="shape"/>
</filter>
<filter id="filter8_d" x="79.8488" y="317" width="68.3024" height="65" filterUnits="userSpaceOnUse" color-interpolation-filters="sRGB">
<feFlood flood-opacity="0" result="BackgroundImageFix"/>
<feColorMatrix in="SourceAlpha" type="matrix" values="0 0 0 0 0 0 0 0 0 0 0 0 0 0 0 0 0 0 127 0"/>
<feOffset dy="4"/>
<feGaussianBlur stdDeviation="2"/>
<feColorMatrix type="matrix" values="0 0 0 0 0 0 0 0 0 0 0 0 0 0 0 0 0 0 0.25 0"/>
<feBlend mode="normal" in2="BackgroundImageFix" result="effect1_dropShadow"/>
<feBlend mode="normal" in="SourceGraphic" in2="effect1_dropShadow" result="shape"/>
</filter>
<filter id="filter9_d" x="332" y="-77" width="9" height="229" filterUnits="userSpaceOnUse" color-interpolation-filters="sRGB">
<feFlood flood-opacity="0" result="BackgroundImageFix"/>
<feColorMatrix in="SourceAlpha" type="matrix" values="0 0 0 0 0 0 0 0 0 0 0 0 0 0 0 0 0 0 127 0"/>
<feOffset dy="4"/>
<feGaussianBlur stdDeviation="2"/>
<feColorMatrix type="matrix" values="0 0 0 0 0 0 0 0 0 0 0 0 0 0 0 0 0 0 0.25 0"/>
<feBlend mode="normal" in2="BackgroundImageFix" result="effect1_dropShadow"/>
<feBlend mode="normal" in="SourceGraphic" in2="effect1_dropShadow" result="shape"/>
</filter>
<filter id="filter10_d" x="245" y="-23" width="9" height="641" filterUnits="userSpaceOnUse" color-interpolation-filters="sRGB">
<feFlood flood-opacity="0" result="BackgroundImageFix"/>
<feColorMatrix in="SourceAlpha" type="matrix" values="0 0 0 0 0 0 0 0 0 0 0 0 0 0 0 0 0 0 127 0"/>
<feOffset dy="4"/>
<feGaussianBlur stdDeviation="2"/>
<feColorMatrix type="matrix" values="0 0 0 0 0 0 0 0 0 0 0 0 0 0 0 0 0 0 0.25 0"/>
<feBlend mode="normal" in2="BackgroundImageFix" result="effect1_dropShadow"/>
<feBlend mode="normal" in="SourceGraphic" in2="effect1_dropShadow" result="shape"/>
</filter>
<clipPath id="clip0">
<rect width="414" height="896" fill="white"/>
</clipPath>
</defs>
</svg>
